# The Zanpakuto after FFVII's Buster Sword - the owner's Blockbench model (docs/Bankai), written by ai/tools/gltf_to_obj.py; edit that.
mtllib isekubed:models/item/zanpakuto.mtl
o zanpakuto
v 0.230115 0.135048 0.514938
v 0.208989 0.156174 0.514938
v 0.230115 0.135048 0.485062
v 0.208989 0.156174 0.485062
v 0.061107 0.008292 0.514938
v 0.082233 -0.012834 0.514938
v 0.061107 0.008292 0.485062
v 0.082233 -0.012834 0.485062
v 0.061107 0.008292 0.514938
v 0.208989 0.156174 0.514938
v 0.082233 -0.012834 0.514938
v 0.230115 0.135048 0.514938
v 0.082233 -0.012834 0.485062
v 0.230115 0.135048 0.485062
v 0.061107 0.008292 0.485062
v 0.208989 0.156174 0.485062
v 0.082233 -0.012834 0.514938
v 0.230115 0.135048 0.514938
v 0.082233 -0.012834 0.485062
v 0.230115 0.135048 0.485062
v 0.208989 0.156174 0.514938
v 0.061107 0.008292 0.514938
v 0.208989 0.156174 0.485062
v 0.061107 0.008292 0.485062
v 0.377997 0.113922 0.529877
v 0.187863 0.304056 0.529877
v 0.377997 0.113922 0.470123
v 0.187863 0.304056 0.470123
v 0.124485 0.240678 0.529877
v 0.314619 0.050544 0.529877
v 0.124485 0.240678 0.470123
v 0.314619 0.050544 0.470123
v 0.124485 0.240678 0.529877
v 0.187863 0.304056 0.529877
v 0.314619 0.050544 0.529877
v 0.377997 0.113922 0.529877
v 0.314619 0.050544 0.470123
v 0.377997 0.113922 0.470123
v 0.124485 0.240678 0.470123
v 0.187863 0.304056 0.470123
v 0.314619 0.050544 0.529877
v 0.377997 0.113922 0.529877
v 0.314619 0.050544 0.470123
v 0.377997 0.113922 0.470123
v 0.187863 0.304056 0.529877
v 0.124485 0.240678 0.529877
v 0.187863 0.304056 0.470123
v 0.124485 0.240678 0.470123
v 0.346308 0.208989 0.529877
v 0.282930 0.272367 0.529877
v 0.346308 0.208989 0.470123
v 0.282930 0.272367 0.470123
v 0.251241 0.240678 0.529877
v 0.314619 0.177300 0.529877
v 0.251241 0.240678 0.470123
v 0.314619 0.177300 0.470123
v 0.251241 0.240678 0.529877
v 0.282930 0.272367 0.529877
v 0.314619 0.177300 0.529877
v 0.346308 0.208989 0.529877
v 0.314619 0.177300 0.470123
v 0.346308 0.208989 0.470123
v 0.251241 0.240678 0.470123
v 0.282930 0.272367 0.470123
v 0.314619 0.177300 0.529877
v 0.346308 0.208989 0.529877
v 0.314619 0.177300 0.470123
v 0.346308 0.208989 0.470123
v 0.282930 0.272367 0.529877
v 0.251241 0.240678 0.529877
v 0.282930 0.272367 0.470123
v 0.251241 0.240678 0.470123
v 0.420249 0.282930 0.529877
v 0.356871 0.346308 0.529877
v 0.420249 0.282930 0.470123
v 0.356871 0.346308 0.470123
v 0.314619 0.304056 0.529877
v 0.377997 0.240678 0.529877
v 0.314619 0.304056 0.470123
v 0.377997 0.240678 0.470123
v 0.314619 0.304056 0.529877
v 0.356871 0.346308 0.529877
v 0.377997 0.240678 0.529877
v 0.420249 0.282930 0.529877
v 0.377997 0.240678 0.470123
v 0.420249 0.282930 0.470123
v 0.314619 0.304056 0.470123
v 0.356871 0.346308 0.470123
v 0.377997 0.240678 0.529877
v 0.420249 0.282930 0.529877
v 0.377997 0.240678 0.470123
v 0.420249 0.282930 0.470123
v 0.356871 0.346308 0.529877
v 0.314619 0.304056 0.529877
v 0.356871 0.346308 0.470123
v 0.314619 0.304056 0.470123
v 0.377997 0.240678 0.529877
v 0.363209 0.255467 0.529877
v 0.377997 0.240678 0.470123
v 0.363209 0.255467 0.470123
v 0.331520 0.223778 0.529877
v 0.346308 0.208989 0.529877
v 0.331520 0.223778 0.470123
v 0.346308 0.208989 0.470123
v 0.331520 0.223778 0.529877
v 0.363209 0.255467 0.529877
v 0.346308 0.208989 0.529877
v 0.377997 0.240678 0.529877
v 0.346308 0.208989 0.470123
v 0.377997 0.240678 0.470123
v 0.331520 0.223778 0.470123
v 0.363209 0.255467 0.470123
v 0.346308 0.208989 0.529877
v 0.377997 0.240678 0.529877
v 0.346308 0.208989 0.470123
v 0.377997 0.240678 0.470123
v 0.363209 0.255467 0.529877
v 0.331520 0.223778 0.529877
v 0.363209 0.255467 0.470123
v 0.331520 0.223778 0.470123
v 0.331520 0.287156 0.529877
v 0.314619 0.304056 0.529877
v 0.331520 0.287156 0.470123
v 0.314619 0.304056 0.470123
v 0.282930 0.272367 0.529877
v 0.299831 0.255467 0.529877
v 0.282930 0.272367 0.470123
v 0.299831 0.255467 0.470123
v 0.282930 0.272367 0.529877
v 0.314619 0.304056 0.529877
v 0.299831 0.255467 0.529877
v 0.331520 0.287156 0.529877
v 0.299831 0.255467 0.470123
v 0.331520 0.287156 0.470123
v 0.282930 0.272367 0.470123
v 0.314619 0.304056 0.470123
v 0.299831 0.255467 0.529877
v 0.331520 0.287156 0.529877
v 0.299831 0.255467 0.470123
v 0.331520 0.287156 0.470123
v 0.314619 0.304056 0.529877
v 0.282930 0.272367 0.529877
v 0.314619 0.304056 0.470123
v 0.282930 0.272367 0.470123
v 0.451938 0.314619 0.529877
v 0.437150 0.329408 0.529877
v 0.451938 0.314619 0.470123
v 0.437150 0.329408 0.470123
v 0.405461 0.297719 0.529877
v 0.420249 0.282930 0.529877
v 0.405461 0.297719 0.470123
v 0.420249 0.282930 0.470123
v 0.405461 0.297719 0.529877
v 0.437150 0.329408 0.529877
v 0.420249 0.282930 0.529877
v 0.451938 0.314619 0.529877
v 0.420249 0.282930 0.470123
v 0.451938 0.314619 0.470123
v 0.405461 0.297719 0.470123
v 0.437150 0.329408 0.470123
v 0.420249 0.282930 0.529877
v 0.451938 0.314619 0.529877
v 0.420249 0.282930 0.470123
v 0.451938 0.314619 0.470123
v 0.437150 0.329408 0.529877
v 0.405461 0.297719 0.529877
v 0.437150 0.329408 0.470123
v 0.405461 0.297719 0.470123
v 0.405461 0.361097 0.529877
v 0.388560 0.377997 0.529877
v 0.405461 0.361097 0.470123
v 0.388560 0.377997 0.470123
v 0.356871 0.346308 0.529877
v 0.373772 0.329408 0.529877
v 0.356871 0.346308 0.470123
v 0.373772 0.329408 0.470123
v 0.356871 0.346308 0.529877
v 0.388560 0.377997 0.529877
v 0.373772 0.329408 0.529877
v 0.405461 0.361097 0.529877
v 0.373772 0.329408 0.470123
v 0.405461 0.361097 0.470123
v 0.356871 0.346308 0.470123
v 0.388560 0.377997 0.470123
v 0.373772 0.329408 0.529877
v 0.405461 0.361097 0.529877
v 0.373772 0.329408 0.470123
v 0.405461 0.361097 0.470123
v 0.388560 0.377997 0.529877
v 0.356871 0.346308 0.529877
v 0.388560 0.377997 0.470123
v 0.356871 0.346308 0.470123
v 0.473064 0.335745 0.529877
v 0.409686 0.399123 0.529877
v 0.473064 0.335745 0.470123
v 0.409686 0.399123 0.470123
v 0.388560 0.377997 0.529877
v 0.451938 0.314619 0.529877
v 0.388560 0.377997 0.470123
v 0.451938 0.314619 0.470123
v 0.388560 0.377997 0.529877
v 0.409686 0.399123 0.529877
v 0.451938 0.314619 0.529877
v 0.473064 0.335745 0.529877
v 0.451938 0.314619 0.470123
v 0.473064 0.335745 0.470123
v 0.388560 0.377997 0.470123
v 0.409686 0.399123 0.470123
v 0.451938 0.314619 0.529877
v 0.473064 0.335745 0.529877
v 0.451938 0.314619 0.470123
v 0.473064 0.335745 0.470123
v 0.409686 0.399123 0.529877
v 0.388560 0.377997 0.529877
v 0.409686 0.399123 0.470123
v 0.388560 0.377997 0.470123
v 0.937836 0.694887 0.514938
v 0.768828 0.863895 0.514938
v 0.937836 0.694887 0.485062
v 0.768828 0.863895 0.485062
v 0.198426 0.293493 0.514938
v 0.367434 0.124485 0.514938
v 0.198426 0.293493 0.485062
v 0.367434 0.124485 0.485062
v 0.198426 0.293493 0.514938
v 0.768828 0.863895 0.514938
v 0.367434 0.124485 0.514938
v 0.937836 0.694887 0.514938
v 0.367434 0.124485 0.485062
v 0.937836 0.694887 0.485062
v 0.198426 0.293493 0.485062
v 0.768828 0.863895 0.485062
v 0.367434 0.124485 0.514938
v 0.937836 0.694887 0.514938
v 0.367434 0.124485 0.485062
v 0.937836 0.694887 0.485062
v 0.768828 0.863895 0.514938
v 0.198426 0.293493 0.514938
v 0.768828 0.863895 0.485062
v 0.198426 0.293493 0.485062
v 0.938893 0.991708 0.514938
v 0.917767 1.012834 0.514938
v 0.938893 0.991708 0.485062
v 0.917767 1.012834 0.485062
v 0.768828 0.863895 0.514938
v 0.789954 0.842769 0.514938
v 0.768828 0.863895 0.485062
v 0.789954 0.842769 0.485062
v 0.768828 0.863895 0.514938
v 0.917767 1.012834 0.514938
v 0.789954 0.842769 0.514938
v 0.938893 0.991708 0.514938
v 0.789954 0.842769 0.485062
v 0.938893 0.991708 0.485062
v 0.768828 0.863895 0.485062
v 0.917767 1.012834 0.485062
v 0.789954 0.842769 0.514938
v 0.938893 0.991708 0.514938
v 0.789954 0.842769 0.485062
v 0.938893 0.991708 0.485062
v 0.917767 1.012834 0.514938
v 0.768828 0.863895 0.514938
v 0.917767 1.012834 0.485062
v 0.768828 0.863895 0.485062
v 0.938587 0.991614 0.514938
v 0.908710 0.991614 0.514938
v 0.938587 0.991614 0.485062
v 0.908710 0.991614 0.485062
v 0.908710 0.695835 0.514938
v 0.938587 0.695835 0.514938
v 0.908710 0.695835 0.485062
v 0.938587 0.695835 0.485062
v 0.908710 0.695835 0.514938
v 0.908710 0.991614 0.514938
v 0.938587 0.695835 0.514938
v 0.938587 0.991614 0.514938
v 0.938587 0.695835 0.485062
v 0.938587 0.991614 0.485062
v 0.908710 0.695835 0.485062
v 0.908710 0.991614 0.485062
v 0.938587 0.695835 0.514938
v 0.938587 0.991614 0.514938
v 0.938587 0.695835 0.485062
v 0.938587 0.991614 0.485062
v 0.908710 0.991614 0.514938
v 0.908710 0.695835 0.514938
v 0.908710 0.991614 0.485062
v 0.908710 0.695835 0.485062
v 0.937836 0.737139 0.514938
v 0.789954 0.885021 0.514938
v 0.937836 0.737139 0.485062
v 0.789954 0.885021 0.485062
v 0.768828 0.863895 0.514938
v 0.916710 0.716013 0.514938
v 0.768828 0.863895 0.485062
v 0.916710 0.716013 0.485062
v 0.768828 0.863895 0.514938
v 0.789954 0.885021 0.514938
v 0.916710 0.716013 0.514938
v 0.937836 0.737139 0.514938
v 0.916710 0.716013 0.485062
v 0.937836 0.737139 0.485062
v 0.768828 0.863895 0.485062
v 0.789954 0.885021 0.485062
v 0.916710 0.716013 0.514938
v 0.937836 0.737139 0.514938
v 0.916710 0.716013 0.485062
v 0.937836 0.737139 0.485062
v 0.789954 0.885021 0.514938
v 0.768828 0.863895 0.514938
v 0.789954 0.885021 0.485062
v 0.768828 0.863895 0.485062
v 0.937836 0.779391 0.514938
v 0.811080 0.906147 0.514938
v 0.937836 0.779391 0.485062
v 0.811080 0.906147 0.485062
v 0.789954 0.885021 0.514938
v 0.916710 0.758265 0.514938
v 0.789954 0.885021 0.485062
v 0.916710 0.758265 0.485062
v 0.789954 0.885021 0.514938
v 0.811080 0.906147 0.514938
v 0.916710 0.758265 0.514938
v 0.937836 0.779391 0.514938
v 0.916710 0.758265 0.485062
v 0.937836 0.779391 0.485062
v 0.789954 0.885021 0.485062
v 0.811080 0.906147 0.485062
v 0.916710 0.758265 0.514938
v 0.937836 0.779391 0.514938
v 0.916710 0.758265 0.485062
v 0.937836 0.779391 0.485062
v 0.811080 0.906147 0.514938
v 0.789954 0.885021 0.514938
v 0.811080 0.906147 0.485062
v 0.789954 0.885021 0.485062
v 0.937836 0.821643 0.514938
v 0.832206 0.927273 0.514938
v 0.937836 0.821643 0.485062
v 0.832206 0.927273 0.485062
v 0.811080 0.906147 0.514938
v 0.916710 0.800517 0.514938
v 0.811080 0.906147 0.485062
v 0.916710 0.800517 0.485062
v 0.811080 0.906147 0.514938
v 0.832206 0.927273 0.514938
v 0.916710 0.800517 0.514938
v 0.937836 0.821643 0.514938
v 0.916710 0.800517 0.485062
v 0.937836 0.821643 0.485062
v 0.811080 0.906147 0.485062
v 0.832206 0.927273 0.485062
v 0.916710 0.800517 0.514938
v 0.937836 0.821643 0.514938
v 0.916710 0.800517 0.485062
v 0.937836 0.821643 0.485062
v 0.832206 0.927273 0.514938
v 0.811080 0.906147 0.514938
v 0.832206 0.927273 0.485062
v 0.811080 0.906147 0.485062
v 0.937836 0.863895 0.514938
v 0.853332 0.948399 0.514938
v 0.937836 0.863895 0.485062
v 0.853332 0.948399 0.485062
v 0.832206 0.927273 0.514938
v 0.916710 0.842769 0.514938
v 0.832206 0.927273 0.485062
v 0.916710 0.842769 0.485062
v 0.832206 0.927273 0.514938
v 0.853332 0.948399 0.514938
v 0.916710 0.842769 0.514938
v 0.937836 0.863895 0.514938
v 0.916710 0.842769 0.485062
v 0.937836 0.863895 0.485062
v 0.832206 0.927273 0.485062
v 0.853332 0.948399 0.485062
v 0.916710 0.842769 0.514938
v 0.937836 0.863895 0.514938
v 0.916710 0.842769 0.485062
v 0.937836 0.863895 0.485062
v 0.853332 0.948399 0.514938
v 0.832206 0.927273 0.514938
v 0.853332 0.948399 0.485062
v 0.832206 0.927273 0.485062
v 0.937836 0.906147 0.514938
v 0.895584 0.948399 0.514938
v 0.937836 0.906147 0.485062
v 0.895584 0.948399 0.485062
v 0.874458 0.927273 0.514938
v 0.916710 0.885021 0.514938
v 0.874458 0.927273 0.485062
v 0.916710 0.885021 0.485062
v 0.874458 0.927273 0.514938
v 0.895584 0.948399 0.514938
v 0.916710 0.885021 0.514938
v 0.937836 0.906147 0.514938
v 0.916710 0.885021 0.485062
v 0.937836 0.906147 0.485062
v 0.874458 0.927273 0.485062
v 0.895584 0.948399 0.485062
v 0.916710 0.885021 0.514938
v 0.937836 0.906147 0.514938
v 0.916710 0.885021 0.485062
v 0.937836 0.906147 0.485062
v 0.895584 0.948399 0.514938
v 0.874458 0.927273 0.514938
v 0.895584 0.948399 0.485062
v 0.874458 0.927273 0.485062
v 0.937836 0.948399 0.514938
v 0.916710 0.969525 0.514938
v 0.937836 0.948399 0.485062
v 0.916710 0.969525 0.485062
v 0.895584 0.948399 0.514938
v 0.916710 0.927273 0.514938
v 0.895584 0.948399 0.485062
v 0.916710 0.927273 0.485062
v 0.895584 0.948399 0.514938
v 0.916710 0.969525 0.514938
v 0.916710 0.927273 0.514938
v 0.937836 0.948399 0.514938
v 0.916710 0.927273 0.485062
v 0.937836 0.948399 0.485062
v 0.895584 0.948399 0.485062
v 0.916710 0.969525 0.485062
v 0.916710 0.927273 0.514938
v 0.937836 0.948399 0.514938
v 0.916710 0.927273 0.485062
v 0.937836 0.948399 0.485062
v 0.916710 0.969525 0.514938
v 0.895584 0.948399 0.514938
v 0.916710 0.969525 0.485062
v 0.895584 0.948399 0.485062
vt 0.468750 0.921875
vt 0.484375 0.921875
vt 0.468750 0.906250
vt 0.484375 0.906250
vt 0.468750 0.906250
vt 0.484375 0.906250
vt 0.468750 0.890625
vt 0.484375 0.890625
vt 0.312500 0.625000
vt 0.203125 0.625000
vt 0.312500 0.640625
vt 0.203125 0.640625
vt 0.421875 0.640625
vt 0.312500 0.640625
vt 0.421875 0.625000
vt 0.312500 0.625000
vt 0.093750 0.640625
vt 0.203125 0.640625
vt 0.093750 0.625000
vt 0.203125 0.625000
vt 0.343750 0.656250
vt 0.453125 0.656250
vt 0.343750 0.640625
vt 0.453125 0.640625
vt 0.093750 0.718750
vt 0.234375 0.718750
vt 0.093750 0.687500
vt 0.234375 0.687500
vt 0.234375 0.718750
vt 0.375000 0.718750
vt 0.234375 0.687500
vt 0.375000 0.687500
vt 0.046875 0.609375
vt 0.000000 0.609375
vt 0.046875 0.750000
vt 0.000000 0.750000
vt 0.093750 0.750000
vt 0.046875 0.750000
vt 0.093750 0.609375
vt 0.046875 0.609375
vt 0.187500 0.609375
vt 0.234375 0.609375
vt 0.187500 0.578125
vt 0.234375 0.578125
vt 0.140625 0.609375
vt 0.187500 0.609375
vt 0.140625 0.578125
vt 0.187500 0.578125
vt 0.234375 0.609375
vt 0.281250 0.609375
vt 0.234375 0.578125
vt 0.281250 0.578125
vt 0.281250 0.609375
vt 0.328125 0.609375
vt 0.281250 0.578125
vt 0.328125 0.578125
vt 0.359375 0.562500
vt 0.328125 0.562500
vt 0.359375 0.609375
vt 0.328125 0.609375
vt 0.390625 0.609375
vt 0.359375 0.609375
vt 0.390625 0.562500
vt 0.359375 0.562500
vt 0.281250 0.578125
vt 0.312500 0.578125
vt 0.281250 0.546875
vt 0.312500 0.546875
vt 0.250000 0.578125
vt 0.281250 0.578125
vt 0.250000 0.546875
vt 0.281250 0.546875
vt 0.390625 0.609375
vt 0.437500 0.609375
vt 0.390625 0.578125
vt 0.437500 0.578125
vt 0.000000 0.593750
vt 0.046875 0.593750
vt 0.000000 0.562500
vt 0.046875 0.562500
vt 0.078125 0.546875
vt 0.046875 0.546875
vt 0.078125 0.593750
vt 0.046875 0.593750
vt 0.109375 0.593750
vt 0.078125 0.593750
vt 0.109375 0.546875
vt 0.078125 0.546875
vt 0.390625 0.578125
vt 0.421875 0.578125
vt 0.390625 0.546875
vt 0.421875 0.546875
vt 0.421875 0.640625
vt 0.453125 0.640625
vt 0.421875 0.609375
vt 0.453125 0.609375
vt 0.343750 0.562500
vt 0.359375 0.562500
vt 0.343750 0.531250
vt 0.359375 0.531250
vt 0.359375 0.562500
vt 0.375000 0.562500
vt 0.359375 0.531250
vt 0.375000 0.531250
vt 0.468750 0.750000
vt 0.437500 0.750000
vt 0.468750 0.765625
vt 0.437500 0.765625
vt 0.468750 0.609375
vt 0.437500 0.609375
vt 0.468750 0.593750
vt 0.437500 0.593750
vt 0.000000 0.562500
vt 0.031250 0.562500
vt 0.000000 0.531250
vt 0.031250 0.531250
vt 0.421875 0.578125
vt 0.453125 0.578125
vt 0.421875 0.546875
vt 0.453125 0.546875
vt 0.375000 0.562500
vt 0.390625 0.562500
vt 0.375000 0.531250
vt 0.390625 0.531250
vt 0.046875 0.546875
vt 0.062500 0.546875
vt 0.046875 0.515625
vt 0.062500 0.515625
vt 0.468750 0.578125
vt 0.437500 0.578125
vt 0.468750 0.593750
vt 0.437500 0.593750
vt 0.093750 0.546875
vt 0.062500 0.546875
vt 0.093750 0.531250
vt 0.062500 0.531250
vt 0.437500 0.906250
vt 0.468750 0.906250
vt 0.437500 0.875000
vt 0.468750 0.875000
vt 0.437500 0.937500
vt 0.468750 0.937500
vt 0.437500 0.906250
vt 0.468750 0.906250
vt 0.093750 0.546875
vt 0.109375 0.546875
vt 0.093750 0.515625
vt 0.109375 0.515625
vt 0.250000 0.546875
vt 0.265625 0.546875
vt 0.250000 0.515625
vt 0.265625 0.515625
vt 0.296875 0.531250
vt 0.265625 0.531250
vt 0.296875 0.546875
vt 0.265625 0.546875
vt 0.484375 0.687500
vt 0.453125 0.687500
vt 0.484375 0.671875
vt 0.453125 0.671875
vt 0.156250 0.562500
vt 0.187500 0.562500
vt 0.156250 0.531250
vt 0.187500 0.531250
vt 0.437500 0.875000
vt 0.468750 0.875000
vt 0.437500 0.843750
vt 0.468750 0.843750
vt 0.296875 0.546875
vt 0.312500 0.546875
vt 0.296875 0.515625
vt 0.312500 0.515625
vt 0.453125 0.671875
vt 0.468750 0.671875
vt 0.453125 0.640625
vt 0.468750 0.640625
vt 0.484375 0.625000
vt 0.453125 0.625000
vt 0.484375 0.640625
vt 0.453125 0.640625
vt 0.484375 0.625000
vt 0.453125 0.625000
vt 0.484375 0.609375
vt 0.453125 0.609375
vt 0.187500 0.562500
vt 0.218750 0.562500
vt 0.187500 0.531250
vt 0.218750 0.531250
vt 0.437500 0.828125
vt 0.468750 0.828125
vt 0.437500 0.796875
vt 0.468750 0.796875
vt 0.406250 0.687500
vt 0.453125 0.687500
vt 0.406250 0.656250
vt 0.453125 0.656250
vt 0.421875 1.000000
vt 0.468750 1.000000
vt 0.421875 0.968750
vt 0.468750 0.968750
vt 0.234375 0.515625
vt 0.218750 0.515625
vt 0.234375 0.562500
vt 0.218750 0.562500
vt 0.343750 0.562500
vt 0.328125 0.562500
vt 0.343750 0.515625
vt 0.328125 0.515625
vt 0.406250 0.546875
vt 0.421875 0.546875
vt 0.406250 0.515625
vt 0.421875 0.515625
vt 0.390625 0.546875
vt 0.406250 0.546875
vt 0.390625 0.515625
vt 0.406250 0.515625
vt 0.093750 0.656250
vt 0.218750 0.656250
vt 0.093750 0.640625
vt 0.218750 0.640625
vt 0.218750 0.656250
vt 0.343750 0.656250
vt 0.218750 0.640625
vt 0.343750 0.640625
vt 0.421875 0.875000
vt 0.000000 0.875000
vt 0.421875 1.000000
vt 0.000000 1.000000
vt 0.421875 0.875000
vt 0.000000 0.875000
vt 0.421875 0.750000
vt 0.000000 0.750000
vt 0.093750 0.734375
vt 0.515625 0.734375
vt 0.093750 0.718750
vt 0.515625 0.718750
vt 0.093750 0.750000
vt 0.515625 0.750000
vt 0.093750 0.734375
vt 0.515625 0.734375
vt 0.468750 0.890625
vt 0.484375 0.890625
vt 0.468750 0.875000
vt 0.484375 0.875000
vt 0.468750 0.875000
vt 0.484375 0.875000
vt 0.468750 0.859375
vt 0.484375 0.859375
vt 0.484375 0.703125
vt 0.375000 0.703125
vt 0.484375 0.718750
vt 0.375000 0.718750
vt 0.484375 0.703125
vt 0.375000 0.703125
vt 0.484375 0.687500
vt 0.375000 0.687500
vt 0.203125 0.625000
vt 0.312500 0.625000
vt 0.203125 0.609375
vt 0.312500 0.609375
vt 0.093750 0.625000
vt 0.203125 0.625000
vt 0.093750 0.609375
vt 0.203125 0.609375
vt 0.468750 0.859375
vt 0.484375 0.859375
vt 0.468750 0.843750
vt 0.484375 0.843750
vt 0.156250 0.531250
vt 0.171875 0.531250
vt 0.156250 0.515625
vt 0.171875 0.515625
vt 0.250000 0.656250
vt 0.093750 0.656250
vt 0.250000 0.671875
vt 0.093750 0.671875
vt 0.406250 0.671875
vt 0.250000 0.671875
vt 0.406250 0.656250
vt 0.250000 0.656250
vt 0.250000 0.687500
vt 0.406250 0.687500
vt 0.250000 0.671875
vt 0.406250 0.671875
vt 0.093750 0.687500
vt 0.250000 0.687500
vt 0.093750 0.671875
vt 0.250000 0.671875
vt 0.312500 0.625000
vt 0.421875 0.625000
vt 0.312500 0.609375
vt 0.421875 0.609375
vt 0.000000 0.609375
vt 0.109375 0.609375
vt 0.000000 0.593750
vt 0.109375 0.593750
vt 0.125000 0.500000
vt 0.109375 0.500000
vt 0.125000 0.609375
vt 0.109375 0.609375
vt 0.140625 0.609375
vt 0.125000 0.609375
vt 0.140625 0.500000
vt 0.125000 0.500000
vt 0.468750 0.828125
vt 0.484375 0.828125
vt 0.468750 0.812500
vt 0.484375 0.812500
vt 0.171875 0.531250
vt 0.187500 0.531250
vt 0.171875 0.515625
vt 0.187500 0.515625
vt 0.421875 0.968750
vt 0.515625 0.968750
vt 0.421875 0.953125
vt 0.515625 0.953125
vt 0.421875 0.953125
vt 0.515625 0.953125
vt 0.421875 0.937500
vt 0.515625 0.937500
vt 0.437500 0.843750
vt 0.421875 0.843750
vt 0.437500 0.937500
vt 0.421875 0.937500
vt 0.156250 0.578125
vt 0.140625 0.578125
vt 0.156250 0.484375
vt 0.140625 0.484375
vt 0.468750 0.812500
vt 0.484375 0.812500
vt 0.468750 0.796875
vt 0.484375 0.796875
vt 0.187500 0.531250
vt 0.203125 0.531250
vt 0.187500 0.515625
vt 0.203125 0.515625
vt 0.156250 0.578125
vt 0.234375 0.578125
vt 0.156250 0.562500
vt 0.234375 0.562500
vt 0.421875 0.843750
vt 0.500000 0.843750
vt 0.421875 0.828125
vt 0.500000 0.828125
vt 0.437500 0.750000
vt 0.421875 0.750000
vt 0.437500 0.828125
vt 0.421875 0.828125
vt 0.250000 0.578125
vt 0.234375 0.578125
vt 0.250000 0.500000
vt 0.234375 0.500000
vt 0.468750 0.765625
vt 0.484375 0.765625
vt 0.468750 0.750000
vt 0.484375 0.750000
vt 0.203125 0.531250
vt 0.218750 0.531250
vt 0.203125 0.515625
vt 0.218750 0.515625
vt 0.437500 0.796875
vt 0.500000 0.796875
vt 0.437500 0.781250
vt 0.500000 0.781250
vt 0.437500 0.781250
vt 0.500000 0.781250
vt 0.437500 0.765625
vt 0.500000 0.765625
vt 0.328125 0.515625
vt 0.312500 0.515625
vt 0.328125 0.578125
vt 0.312500 0.578125
vt 0.046875 0.562500
vt 0.031250 0.562500
vt 0.046875 0.500000
vt 0.031250 0.500000
vt 0.281250 0.531250
vt 0.296875 0.531250
vt 0.281250 0.515625
vt 0.296875 0.515625
vt 0.265625 0.531250
vt 0.281250 0.531250
vt 0.265625 0.515625
vt 0.281250 0.515625
vt 0.421875 0.546875
vt 0.453125 0.546875
vt 0.421875 0.531250
vt 0.453125 0.531250
vt 0.453125 0.578125
vt 0.484375 0.578125
vt 0.453125 0.562500
vt 0.484375 0.562500
vt 0.468750 0.531250
vt 0.453125 0.531250
vt 0.468750 0.562500
vt 0.453125 0.562500
vt 0.015625 0.531250
vt 0.000000 0.531250
vt 0.015625 0.500000
vt 0.000000 0.500000
vt 0.343750 0.531250
vt 0.359375 0.531250
vt 0.343750 0.515625
vt 0.359375 0.515625
vt 0.468750 0.671875
vt 0.484375 0.671875
vt 0.468750 0.656250
vt 0.484375 0.656250
vt 0.015625 0.531250
vt 0.031250 0.531250
vt 0.015625 0.515625
vt 0.031250 0.515625
vt 0.062500 0.531250
vt 0.078125 0.531250
vt 0.062500 0.515625
vt 0.078125 0.515625
vt 0.484375 0.921875
vt 0.468750 0.921875
vt 0.484375 0.937500
vt 0.468750 0.937500
vt 0.093750 0.531250
vt 0.078125 0.531250
vt 0.093750 0.515625
vt 0.078125 0.515625
vt 0.468750 0.984375
vt 0.484375 0.984375
vt 0.468750 0.968750
vt 0.484375 0.968750
vt 0.468750 1.000000
vt 0.484375 1.000000
vt 0.468750 0.984375
vt 0.484375 0.984375
vn 0.707107 0.707107 0.000000
vn 0.707107 0.707107 0.000000
vn 0.707107 0.707107 0.000000
vn 0.707107 0.707107 0.000000
vn -0.707107 -0.707107 0.000000
vn -0.707107 -0.707107 0.000000
vn -0.707107 -0.707107 0.000000
vn -0.707107 -0.707107 0.000000
vn 0.000000 0.000000 1.000000
vn 0.000000 0.000000 1.000000
vn 0.000000 0.000000 1.000000
vn 0.000000 0.000000 1.000000
vn 0.000000 0.000000 -1.000000
vn 0.000000 0.000000 -1.000000
vn 0.000000 0.000000 -1.000000
vn 0.000000 0.000000 -1.000000
vn 0.707107 -0.707107 0.000000
vn 0.707107 -0.707107 0.000000
vn 0.707107 -0.707107 0.000000
vn 0.707107 -0.707107 0.000000
vn -0.707107 0.707107 0.000000
vn -0.707107 0.707107 0.000000
vn -0.707107 0.707107 0.000000
vn -0.707107 0.707107 0.000000
vn 0.707107 0.707107 0.000000
vn 0.707107 0.707107 0.000000
vn 0.707107 0.707107 0.000000
vn 0.707107 0.707107 0.000000
vn -0.707107 -0.707107 0.000000
vn -0.707107 -0.707107 0.000000
vn -0.707107 -0.707107 0.000000
vn -0.707107 -0.707107 0.000000
vn 0.000000 0.000000 1.000000
vn 0.000000 0.000000 1.000000
vn 0.000000 0.000000 1.000000
vn 0.000000 0.000000 1.000000
vn 0.000000 0.000000 -1.000000
vn 0.000000 0.000000 -1.000000
vn 0.000000 0.000000 -1.000000
vn 0.000000 0.000000 -1.000000
vn 0.707107 -0.707107 0.000000
vn 0.707107 -0.707107 0.000000
vn 0.707107 -0.707107 0.000000
vn 0.707107 -0.707107 0.000000
vn -0.707107 0.707107 0.000000
vn -0.707107 0.707107 0.000000
vn -0.707107 0.707107 0.000000
vn -0.707107 0.707107 0.000000
vn 0.707107 0.707107 0.000000
vn 0.707107 0.707107 0.000000
vn 0.707107 0.707107 0.000000
vn 0.707107 0.707107 0.000000
vn -0.707107 -0.707107 0.000000
vn -0.707107 -0.707107 0.000000
vn -0.707107 -0.707107 0.000000
vn -0.707107 -0.707107 0.000000
vn 0.000000 0.000000 1.000000
vn 0.000000 0.000000 1.000000
vn 0.000000 0.000000 1.000000
vn 0.000000 0.000000 1.000000
vn 0.000000 0.000000 -1.000000
vn 0.000000 0.000000 -1.000000
vn 0.000000 0.000000 -1.000000
vn 0.000000 0.000000 -1.000000
vn 0.707107 -0.707107 0.000000
vn 0.707107 -0.707107 0.000000
vn 0.707107 -0.707107 0.000000
vn 0.707107 -0.707107 0.000000
vn -0.707107 0.707107 0.000000
vn -0.707107 0.707107 0.000000
vn -0.707107 0.707107 0.000000
vn -0.707107 0.707107 0.000000
vn 0.707107 0.707107 0.000000
vn 0.707107 0.707107 0.000000
vn 0.707107 0.707107 0.000000
vn 0.707107 0.707107 0.000000
vn -0.707107 -0.707107 0.000000
vn -0.707107 -0.707107 0.000000
vn -0.707107 -0.707107 0.000000
vn -0.707107 -0.707107 0.000000
vn 0.000000 0.000000 1.000000
vn 0.000000 0.000000 1.000000
vn 0.000000 0.000000 1.000000
vn 0.000000 0.000000 1.000000
vn 0.000000 0.000000 -1.000000
vn 0.000000 0.000000 -1.000000
vn 0.000000 0.000000 -1.000000
vn 0.000000 0.000000 -1.000000
vn 0.707107 -0.707107 0.000000
vn 0.707107 -0.707107 0.000000
vn 0.707107 -0.707107 0.000000
vn 0.707107 -0.707107 0.000000
vn -0.707107 0.707107 0.000000
vn -0.707107 0.707107 0.000000
vn -0.707107 0.707107 0.000000
vn -0.707107 0.707107 0.000000
vn 0.707107 0.707107 0.000000
vn 0.707107 0.707107 0.000000
vn 0.707107 0.707107 0.000000
vn 0.707107 0.707107 0.000000
vn -0.707107 -0.707107 0.000000
vn -0.707107 -0.707107 0.000000
vn -0.707107 -0.707107 0.000000
vn -0.707107 -0.707107 0.000000
vn 0.000000 0.000000 1.000000
vn 0.000000 0.000000 1.000000
vn 0.000000 0.000000 1.000000
vn 0.000000 0.000000 1.000000
vn 0.000000 0.000000 -1.000000
vn 0.000000 0.000000 -1.000000
vn 0.000000 0.000000 -1.000000
vn 0.000000 0.000000 -1.000000
vn 0.707107 -0.707107 0.000000
vn 0.707107 -0.707107 0.000000
vn 0.707107 -0.707107 0.000000
vn 0.707107 -0.707107 0.000000
vn -0.707107 0.707107 0.000000
vn -0.707107 0.707107 0.000000
vn -0.707107 0.707107 0.000000
vn -0.707107 0.707107 0.000000
vn 0.707107 0.707107 0.000000
vn 0.707107 0.707107 0.000000
vn 0.707107 0.707107 0.000000
vn 0.707107 0.707107 0.000000
vn -0.707107 -0.707107 0.000000
vn -0.707107 -0.707107 0.000000
vn -0.707107 -0.707107 0.000000
vn -0.707107 -0.707107 0.000000
vn 0.000000 0.000000 1.000000
vn 0.000000 0.000000 1.000000
vn 0.000000 0.000000 1.000000
vn 0.000000 0.000000 1.000000
vn 0.000000 0.000000 -1.000000
vn 0.000000 0.000000 -1.000000
vn 0.000000 0.000000 -1.000000
vn 0.000000 0.000000 -1.000000
vn 0.707107 -0.707107 0.000000
vn 0.707107 -0.707107 0.000000
vn 0.707107 -0.707107 0.000000
vn 0.707107 -0.707107 0.000000
vn -0.707107 0.707107 0.000000
vn -0.707107 0.707107 0.000000
vn -0.707107 0.707107 0.000000
vn -0.707107 0.707107 0.000000
vn 0.707107 0.707107 0.000000
vn 0.707107 0.707107 0.000000
vn 0.707107 0.707107 0.000000
vn 0.707107 0.707107 0.000000
vn -0.707107 -0.707107 0.000000
vn -0.707107 -0.707107 0.000000
vn -0.707107 -0.707107 0.000000
vn -0.707107 -0.707107 0.000000
vn 0.000000 0.000000 1.000000
vn 0.000000 0.000000 1.000000
vn 0.000000 0.000000 1.000000
vn 0.000000 0.000000 1.000000
vn 0.000000 0.000000 -1.000000
vn 0.000000 0.000000 -1.000000
vn 0.000000 0.000000 -1.000000
vn 0.000000 0.000000 -1.000000
vn 0.707107 -0.707107 0.000000
vn 0.707107 -0.707107 0.000000
vn 0.707107 -0.707107 0.000000
vn 0.707107 -0.707107 0.000000
vn -0.707107 0.707107 0.000000
vn -0.707107 0.707107 0.000000
vn -0.707107 0.707107 0.000000
vn -0.707107 0.707107 0.000000
vn 0.707107 0.707107 0.000000
vn 0.707107 0.707107 0.000000
vn 0.707107 0.707107 0.000000
vn 0.707107 0.707107 0.000000
vn -0.707107 -0.707107 0.000000
vn -0.707107 -0.707107 0.000000
vn -0.707107 -0.707107 0.000000
vn -0.707107 -0.707107 0.000000
vn 0.000000 0.000000 1.000000
vn 0.000000 0.000000 1.000000
vn 0.000000 0.000000 1.000000
vn 0.000000 0.000000 1.000000
vn 0.000000 0.000000 -1.000000
vn 0.000000 0.000000 -1.000000
vn 0.000000 0.000000 -1.000000
vn 0.000000 0.000000 -1.000000
vn 0.707107 -0.707107 0.000000
vn 0.707107 -0.707107 0.000000
vn 0.707107 -0.707107 0.000000
vn 0.707107 -0.707107 0.000000
vn -0.707107 0.707107 0.000000
vn -0.707107 0.707107 0.000000
vn -0.707107 0.707107 0.000000
vn -0.707107 0.707107 0.000000
vn 0.707107 0.707107 0.000000
vn 0.707107 0.707107 0.000000
vn 0.707107 0.707107 0.000000
vn 0.707107 0.707107 0.000000
vn -0.707107 -0.707107 0.000000
vn -0.707107 -0.707107 0.000000
vn -0.707107 -0.707107 0.000000
vn -0.707107 -0.707107 0.000000
vn 0.000000 0.000000 1.000000
vn 0.000000 0.000000 1.000000
vn 0.000000 0.000000 1.000000
vn 0.000000 0.000000 1.000000
vn 0.000000 0.000000 -1.000000
vn 0.000000 0.000000 -1.000000
vn 0.000000 0.000000 -1.000000
vn 0.000000 0.000000 -1.000000
vn 0.707107 -0.707107 0.000000
vn 0.707107 -0.707107 0.000000
vn 0.707107 -0.707107 0.000000
vn 0.707107 -0.707107 0.000000
vn -0.707107 0.707107 0.000000
vn -0.707107 0.707107 0.000000
vn -0.707107 0.707107 0.000000
vn -0.707107 0.707107 0.000000
vn 0.707107 0.707107 0.000000
vn 0.707107 0.707107 0.000000
vn 0.707107 0.707107 0.000000
vn 0.707107 0.707107 0.000000
vn -0.707107 -0.707107 0.000000
vn -0.707107 -0.707107 0.000000
vn -0.707107 -0.707107 0.000000
vn -0.707107 -0.707107 0.000000
vn 0.000000 0.000000 1.000000
vn 0.000000 0.000000 1.000000
vn 0.000000 0.000000 1.000000
vn 0.000000 0.000000 1.000000
vn 0.000000 0.000000 -1.000000
vn 0.000000 0.000000 -1.000000
vn 0.000000 0.000000 -1.000000
vn 0.000000 0.000000 -1.000000
vn 0.707107 -0.707107 0.000000
vn 0.707107 -0.707107 0.000000
vn 0.707107 -0.707107 0.000000
vn 0.707107 -0.707107 0.000000
vn -0.707107 0.707107 0.000000
vn -0.707107 0.707107 0.000000
vn -0.707107 0.707107 0.000000
vn -0.707107 0.707107 0.000000
vn 0.707107 0.707107 0.000000
vn 0.707107 0.707107 0.000000
vn 0.707107 0.707107 0.000000
vn 0.707107 0.707107 0.000000
vn -0.707107 -0.707107 0.000000
vn -0.707107 -0.707107 0.000000
vn -0.707107 -0.707107 0.000000
vn -0.707107 -0.707107 0.000000
vn 0.000000 0.000000 1.000000
vn 0.000000 0.000000 1.000000
vn 0.000000 0.000000 1.000000
vn 0.000000 0.000000 1.000000
vn 0.000000 0.000000 -1.000000
vn 0.000000 0.000000 -1.000000
vn 0.000000 0.000000 -1.000000
vn 0.000000 0.000000 -1.000000
vn 0.707107 -0.707107 0.000000
vn 0.707107 -0.707107 0.000000
vn 0.707107 -0.707107 0.000000
vn 0.707107 -0.707107 0.000000
vn -0.707107 0.707107 0.000000
vn -0.707107 0.707107 0.000000
vn -0.707107 0.707107 0.000000
vn -0.707107 0.707107 0.000000
vn -0.000000 1.000000 0.000000
vn -0.000000 1.000000 0.000000
vn -0.000000 1.000000 0.000000
vn -0.000000 1.000000 0.000000
vn 0.000000 -1.000000 0.000000
vn 0.000000 -1.000000 0.000000
vn 0.000000 -1.000000 0.000000
vn 0.000000 -1.000000 0.000000
vn 0.000000 0.000000 1.000000
vn 0.000000 0.000000 1.000000
vn 0.000000 0.000000 1.000000
vn 0.000000 0.000000 1.000000
vn 0.000000 0.000000 -1.000000
vn 0.000000 0.000000 -1.000000
vn 0.000000 0.000000 -1.000000
vn 0.000000 0.000000 -1.000000
vn 1.000000 0.000000 0.000000
vn 1.000000 0.000000 0.000000
vn 1.000000 0.000000 0.000000
vn 1.000000 0.000000 0.000000
vn -1.000000 -0.000000 0.000000
vn -1.000000 -0.000000 0.000000
vn -1.000000 -0.000000 0.000000
vn -1.000000 -0.000000 0.000000
vn 0.707107 0.707107 0.000000
vn 0.707107 0.707107 0.000000
vn 0.707107 0.707107 0.000000
vn 0.707107 0.707107 0.000000
vn -0.707107 -0.707107 0.000000
vn -0.707107 -0.707107 0.000000
vn -0.707107 -0.707107 0.000000
vn -0.707107 -0.707107 0.000000
vn 0.000000 0.000000 1.000000
vn 0.000000 0.000000 1.000000
vn 0.000000 0.000000 1.000000
vn 0.000000 0.000000 1.000000
vn 0.000000 0.000000 -1.000000
vn 0.000000 0.000000 -1.000000
vn 0.000000 0.000000 -1.000000
vn 0.000000 0.000000 -1.000000
vn 0.707107 -0.707107 0.000000
vn 0.707107 -0.707107 0.000000
vn 0.707107 -0.707107 0.000000
vn 0.707107 -0.707107 0.000000
vn -0.707107 0.707107 0.000000
vn -0.707107 0.707107 0.000000
vn -0.707107 0.707107 0.000000
vn -0.707107 0.707107 0.000000
vn 0.707107 0.707107 0.000000
vn 0.707107 0.707107 0.000000
vn 0.707107 0.707107 0.000000
vn 0.707107 0.707107 0.000000
vn -0.707107 -0.707107 0.000000
vn -0.707107 -0.707107 0.000000
vn -0.707107 -0.707107 0.000000
vn -0.707107 -0.707107 0.000000
vn 0.000000 0.000000 1.000000
vn 0.000000 0.000000 1.000000
vn 0.000000 0.000000 1.000000
vn 0.000000 0.000000 1.000000
vn 0.000000 0.000000 -1.000000
vn 0.000000 0.000000 -1.000000
vn 0.000000 0.000000 -1.000000
vn 0.000000 0.000000 -1.000000
vn 0.707107 -0.707107 0.000000
vn 0.707107 -0.707107 0.000000
vn 0.707107 -0.707107 0.000000
vn 0.707107 -0.707107 0.000000
vn -0.707107 0.707107 0.000000
vn -0.707107 0.707107 0.000000
vn -0.707107 0.707107 0.000000
vn -0.707107 0.707107 0.000000
vn 0.707107 0.707107 0.000000
vn 0.707107 0.707107 0.000000
vn 0.707107 0.707107 0.000000
vn 0.707107 0.707107 0.000000
vn -0.707107 -0.707107 0.000000
vn -0.707107 -0.707107 0.000000
vn -0.707107 -0.707107 0.000000
vn -0.707107 -0.707107 0.000000
vn 0.000000 0.000000 1.000000
vn 0.000000 0.000000 1.000000
vn 0.000000 0.000000 1.000000
vn 0.000000 0.000000 1.000000
vn 0.000000 0.000000 -1.000000
vn 0.000000 0.000000 -1.000000
vn 0.000000 0.000000 -1.000000
vn 0.000000 0.000000 -1.000000
vn 0.707107 -0.707107 0.000000
vn 0.707107 -0.707107 0.000000
vn 0.707107 -0.707107 0.000000
vn 0.707107 -0.707107 0.000000
vn -0.707107 0.707107 0.000000
vn -0.707107 0.707107 0.000000
vn -0.707107 0.707107 0.000000
vn -0.707107 0.707107 0.000000
vn 0.707107 0.707107 0.000000
vn 0.707107 0.707107 0.000000
vn 0.707107 0.707107 0.000000
vn 0.707107 0.707107 0.000000
vn -0.707107 -0.707107 0.000000
vn -0.707107 -0.707107 0.000000
vn -0.707107 -0.707107 0.000000
vn -0.707107 -0.707107 0.000000
vn 0.000000 0.000000 1.000000
vn 0.000000 0.000000 1.000000
vn 0.000000 0.000000 1.000000
vn 0.000000 0.000000 1.000000
vn 0.000000 0.000000 -1.000000
vn 0.000000 0.000000 -1.000000
vn 0.000000 0.000000 -1.000000
vn 0.000000 0.000000 -1.000000
vn 0.707107 -0.707107 0.000000
vn 0.707107 -0.707107 0.000000
vn 0.707107 -0.707107 0.000000
vn 0.707107 -0.707107 0.000000
vn -0.707107 0.707107 0.000000
vn -0.707107 0.707107 0.000000
vn -0.707107 0.707107 0.000000
vn -0.707107 0.707107 0.000000
vn 0.707107 0.707107 0.000000
vn 0.707107 0.707107 0.000000
vn 0.707107 0.707107 0.000000
vn 0.707107 0.707107 0.000000
vn -0.707107 -0.707107 0.000000
vn -0.707107 -0.707107 0.000000
vn -0.707107 -0.707107 0.000000
vn -0.707107 -0.707107 0.000000
vn 0.000000 0.000000 1.000000
vn 0.000000 0.000000 1.000000
vn 0.000000 0.000000 1.000000
vn 0.000000 0.000000 1.000000
vn 0.000000 0.000000 -1.000000
vn 0.000000 0.000000 -1.000000
vn 0.000000 0.000000 -1.000000
vn 0.000000 0.000000 -1.000000
vn 0.707107 -0.707107 0.000000
vn 0.707107 -0.707107 0.000000
vn 0.707107 -0.707107 0.000000
vn 0.707107 -0.707107 0.000000
vn -0.707107 0.707107 0.000000
vn -0.707107 0.707107 0.000000
vn -0.707107 0.707107 0.000000
vn -0.707107 0.707107 0.000000
vn 0.707107 0.707107 0.000000
vn 0.707107 0.707107 0.000000
vn 0.707107 0.707107 0.000000
vn 0.707107 0.707107 0.000000
vn -0.707107 -0.707107 0.000000
vn -0.707107 -0.707107 0.000000
vn -0.707107 -0.707107 0.000000
vn -0.707107 -0.707107 0.000000
vn 0.000000 0.000000 1.000000
vn 0.000000 0.000000 1.000000
vn 0.000000 0.000000 1.000000
vn 0.000000 0.000000 1.000000
vn 0.000000 0.000000 -1.000000
vn 0.000000 0.000000 -1.000000
vn 0.000000 0.000000 -1.000000
vn 0.000000 0.000000 -1.000000
vn 0.707107 -0.707107 0.000000
vn 0.707107 -0.707107 0.000000
vn 0.707107 -0.707107 0.000000
vn 0.707107 -0.707107 0.000000
vn -0.707107 0.707107 0.000000
vn -0.707107 0.707107 0.000000
vn -0.707107 0.707107 0.000000
vn -0.707107 0.707107 0.000000
usemtl steel
f 1/1/1 3/3/3 2/2/2
f 3/3/3 4/4/4 2/2/2
f 5/5/5 7/7/7 6/6/6
f 7/7/7 8/8/8 6/6/6
f 9/9/9 11/11/11 10/10/10
f 11/11/11 12/12/12 10/10/10
f 13/13/13 15/15/15 14/14/14
f 15/15/15 16/16/16 14/14/14
f 17/17/17 19/19/19 18/18/18
f 19/19/19 20/20/20 18/18/18
f 21/21/21 23/23/23 22/22/22
f 23/23/23 24/24/24 22/22/22
f 25/25/25 27/27/27 26/26/26
f 27/27/27 28/28/28 26/26/26
f 29/29/29 31/31/31 30/30/30
f 31/31/31 32/32/32 30/30/30
f 33/33/33 35/35/35 34/34/34
f 35/35/35 36/36/36 34/34/34
f 37/37/37 39/39/39 38/38/38
f 39/39/39 40/40/40 38/38/38
f 41/41/41 43/43/43 42/42/42
f 43/43/43 44/44/44 42/42/42
f 45/45/45 47/47/47 46/46/46
f 47/47/47 48/48/48 46/46/46
f 49/49/49 51/51/51 50/50/50
f 51/51/51 52/52/52 50/50/50
f 53/53/53 55/55/55 54/54/54
f 55/55/55 56/56/56 54/54/54
f 57/57/57 59/59/59 58/58/58
f 59/59/59 60/60/60 58/58/58
f 61/61/61 63/63/63 62/62/62
f 63/63/63 64/64/64 62/62/62
f 65/65/65 67/67/67 66/66/66
f 67/67/67 68/68/68 66/66/66
f 69/69/69 71/71/71 70/70/70
f 71/71/71 72/72/72 70/70/70
f 73/73/73 75/75/75 74/74/74
f 75/75/75 76/76/76 74/74/74
f 77/77/77 79/79/79 78/78/78
f 79/79/79 80/80/80 78/78/78
f 81/81/81 83/83/83 82/82/82
f 83/83/83 84/84/84 82/82/82
f 85/85/85 87/87/87 86/86/86
f 87/87/87 88/88/88 86/86/86
f 89/89/89 91/91/91 90/90/90
f 91/91/91 92/92/92 90/90/90
f 93/93/93 95/95/95 94/94/94
f 95/95/95 96/96/96 94/94/94
f 97/97/97 99/99/99 98/98/98
f 99/99/99 100/100/100 98/98/98
f 101/101/101 103/103/103 102/102/102
f 103/103/103 104/104/104 102/102/102
f 105/105/105 107/107/107 106/106/106
f 107/107/107 108/108/108 106/106/106
f 109/109/109 111/111/111 110/110/110
f 111/111/111 112/112/112 110/110/110
f 113/113/113 115/115/115 114/114/114
f 115/115/115 116/116/116 114/114/114
f 117/117/117 119/119/119 118/118/118
f 119/119/119 120/120/120 118/118/118
f 121/121/121 123/123/123 122/122/122
f 123/123/123 124/124/124 122/122/122
f 125/125/125 127/127/127 126/126/126
f 127/127/127 128/128/128 126/126/126
f 129/129/129 131/131/131 130/130/130
f 131/131/131 132/132/132 130/130/130
f 133/133/133 135/135/135 134/134/134
f 135/135/135 136/136/136 134/134/134
f 137/137/137 139/139/139 138/138/138
f 139/139/139 140/140/140 138/138/138
f 141/141/141 143/143/143 142/142/142
f 143/143/143 144/144/144 142/142/142
f 145/145/145 147/147/147 146/146/146
f 147/147/147 148/148/148 146/146/146
f 149/149/149 151/151/151 150/150/150
f 151/151/151 152/152/152 150/150/150
f 153/153/153 155/155/155 154/154/154
f 155/155/155 156/156/156 154/154/154
f 157/157/157 159/159/159 158/158/158
f 159/159/159 160/160/160 158/158/158
f 161/161/161 163/163/163 162/162/162
f 163/163/163 164/164/164 162/162/162
f 165/165/165 167/167/167 166/166/166
f 167/167/167 168/168/168 166/166/166
f 169/169/169 171/171/171 170/170/170
f 171/171/171 172/172/172 170/170/170
f 173/173/173 175/175/175 174/174/174
f 175/175/175 176/176/176 174/174/174
f 177/177/177 179/179/179 178/178/178
f 179/179/179 180/180/180 178/178/178
f 181/181/181 183/183/183 182/182/182
f 183/183/183 184/184/184 182/182/182
f 185/185/185 187/187/187 186/186/186
f 187/187/187 188/188/188 186/186/186
f 189/189/189 191/191/191 190/190/190
f 191/191/191 192/192/192 190/190/190
f 193/193/193 195/195/195 194/194/194
f 195/195/195 196/196/196 194/194/194
f 197/197/197 199/199/199 198/198/198
f 199/199/199 200/200/200 198/198/198
f 201/201/201 203/203/203 202/202/202
f 203/203/203 204/204/204 202/202/202
f 205/205/205 207/207/207 206/206/206
f 207/207/207 208/208/208 206/206/206
f 209/209/209 211/211/211 210/210/210
f 211/211/211 212/212/212 210/210/210
f 213/213/213 215/215/215 214/214/214
f 215/215/215 216/216/216 214/214/214
f 217/217/217 219/219/219 218/218/218
f 219/219/219 220/220/220 218/218/218
f 221/221/221 223/223/223 222/222/222
f 223/223/223 224/224/224 222/222/222
f 225/225/225 227/227/227 226/226/226
f 227/227/227 228/228/228 226/226/226
f 229/229/229 231/231/231 230/230/230
f 231/231/231 232/232/232 230/230/230
f 233/233/233 235/235/235 234/234/234
f 235/235/235 236/236/236 234/234/234
f 237/237/237 239/239/239 238/238/238
f 239/239/239 240/240/240 238/238/238
f 241/241/241 243/243/243 242/242/242
f 243/243/243 244/244/244 242/242/242
f 245/245/245 247/247/247 246/246/246
f 247/247/247 248/248/248 246/246/246
f 249/249/249 251/251/251 250/250/250
f 251/251/251 252/252/252 250/250/250
f 253/253/253 255/255/255 254/254/254
f 255/255/255 256/256/256 254/254/254
f 257/257/257 259/259/259 258/258/258
f 259/259/259 260/260/260 258/258/258
f 261/261/261 263/263/263 262/262/262
f 263/263/263 264/264/264 262/262/262
f 265/265/265 267/267/267 266/266/266
f 267/267/267 268/268/268 266/266/266
f 269/269/269 271/271/271 270/270/270
f 271/271/271 272/272/272 270/270/270
f 273/273/273 275/275/275 274/274/274
f 275/275/275 276/276/276 274/274/274
f 277/277/277 279/279/279 278/278/278
f 279/279/279 280/280/280 278/278/278
f 281/281/281 283/283/283 282/282/282
f 283/283/283 284/284/284 282/282/282
f 285/285/285 287/287/287 286/286/286
f 287/287/287 288/288/288 286/286/286
f 289/289/289 291/291/291 290/290/290
f 291/291/291 292/292/292 290/290/290
f 293/293/293 295/295/295 294/294/294
f 295/295/295 296/296/296 294/294/294
f 297/297/297 299/299/299 298/298/298
f 299/299/299 300/300/300 298/298/298
f 301/301/301 303/303/303 302/302/302
f 303/303/303 304/304/304 302/302/302
f 305/305/305 307/307/307 306/306/306
f 307/307/307 308/308/308 306/306/306
f 309/309/309 311/311/311 310/310/310
f 311/311/311 312/312/312 310/310/310
f 313/313/313 315/315/315 314/314/314
f 315/315/315 316/316/316 314/314/314
f 317/317/317 319/319/319 318/318/318
f 319/319/319 320/320/320 318/318/318
f 321/321/321 323/323/323 322/322/322
f 323/323/323 324/324/324 322/322/322
f 325/325/325 327/327/327 326/326/326
f 327/327/327 328/328/328 326/326/326
f 329/329/329 331/331/331 330/330/330
f 331/331/331 332/332/332 330/330/330
f 333/333/333 335/335/335 334/334/334
f 335/335/335 336/336/336 334/334/334
f 337/337/337 339/339/339 338/338/338
f 339/339/339 340/340/340 338/338/338
f 341/341/341 343/343/343 342/342/342
f 343/343/343 344/344/344 342/342/342
f 345/345/345 347/347/347 346/346/346
f 347/347/347 348/348/348 346/346/346
f 349/349/349 351/351/351 350/350/350
f 351/351/351 352/352/352 350/350/350
f 353/353/353 355/355/355 354/354/354
f 355/355/355 356/356/356 354/354/354
f 357/357/357 359/359/359 358/358/358
f 359/359/359 360/360/360 358/358/358
f 361/361/361 363/363/363 362/362/362
f 363/363/363 364/364/364 362/362/362
f 365/365/365 367/367/367 366/366/366
f 367/367/367 368/368/368 366/366/366
f 369/369/369 371/371/371 370/370/370
f 371/371/371 372/372/372 370/370/370
f 373/373/373 375/375/375 374/374/374
f 375/375/375 376/376/376 374/374/374
f 377/377/377 379/379/379 378/378/378
f 379/379/379 380/380/380 378/378/378
f 381/381/381 383/383/383 382/382/382
f 383/383/383 384/384/384 382/382/382
f 385/385/385 387/387/387 386/386/386
f 387/387/387 388/388/388 386/386/386
f 389/389/389 391/391/391 390/390/390
f 391/391/391 392/392/392 390/390/390
f 393/393/393 395/395/395 394/394/394
f 395/395/395 396/396/396 394/394/394
f 397/397/397 399/399/399 398/398/398
f 399/399/399 400/400/400 398/398/398
f 401/401/401 403/403/403 402/402/402
f 403/403/403 404/404/404 402/402/402
f 405/405/405 407/407/407 406/406/406
f 407/407/407 408/408/408 406/406/406
f 409/409/409 411/411/411 410/410/410
f 411/411/411 412/412/412 410/410/410
f 413/413/413 415/415/415 414/414/414
f 415/415/415 416/416/416 414/414/414
f 417/417/417 419/419/419 418/418/418
f 419/419/419 420/420/420 418/418/418
f 421/421/421 423/423/423 422/422/422
f 423/423/423 424/424/424 422/422/422
f 425/425/425 427/427/427 426/426/426
f 427/427/427 428/428/428 426/426/426
f 429/429/429 431/431/431 430/430/430
f 431/431/431 432/432/432 430/430/430
